# xmcd
# 
# Track frame offsets:
#     150
#     14900
#     31625
#     45575
#     62600
#     79250
#     93050
#     107150
#     121325
#     137675
#     153725
#     167675
#     184250
#     196400
#     212838
# 
# Disc length: 2998
# 
# Revision: 0
# Processed by: cddbd v1.5.2PL0 Copyright (c) Steve Scherf et al.
# Submitted via: fre:ac v1.0.27
# 
DISCID=ca0bb40f
DTITLE=Hansi Hinterseer - Heut' ist Dein Tag
DYEAR=2013
DGENRE=Folk
TTITLE0=Heut' ist Dein Tag
TTITLE1=Du bist so wunderbar
TTITLE2=Wir haben Sommer
TTITLE3=Seitdem denk' ich nur an damals
TTITLE4=Lebenslänglich mit Dir
TTITLE5=A bisserl Herz
TTITLE6=Rendezvous der Liebe
TTITLE7=Nur noch an die Liebe glauben
TTITLE8=Ich gehör' den Bergen
TTITLE9=Lass' die Sonne wieder scheinen
TTITLE10=Geht auch alles gut
TTITLE11=So schön wie Du
TTITLE12=Voulez-Vous
TTITLE13=Heb' Dein Herz für mich auf
TTITLE14=Gern ham
EXTD=
EXTT0=
EXTT1=
EXTT2=
EXTT3=
EXTT4=
EXTT5=
EXTT6=
EXTT7=
EXTT8=
EXTT9=
EXTT10=
EXTT11=
EXTT12=
EXTT13=
EXTT14=
PLAYORDER=
